<?xml version="1.0" standalone="no"?>
<!DOCTYPE svg PUBLIC "-//W3C//DTD SVG 20010904//EN"
 "http://www.w3.org/TR/2001/REC-SVG-20010904/DTD/svg10.dtd">
<svg version="1.0" xmlns="http://www.w3.org/2000/svg"
 width="400.000000pt" height="400.000000pt" viewBox="0 0 400.000000 400.000000"
 preserveAspectRatio="xMidYMid meet">
<metadata>
Created by potrace 1.14, written by Peter Selinger 2001-2017
</metadata>
<g transform="translate(0.000000,400.000000) scale(0.100000,-0.100000)"
fill="#000000" stroke="none">
<path d="M1805 3970 c-27 -4 -68 -10 -90 -13 -437 -65 -814 -255 -1126 -566
-330 -330 -516 -719 -578 -1206 -10 -76 -8 -435 2 -451 3 -6 8 -35 11 -66 8
-78 68 -307 106 -403 90 -227 213 -436 347 -588 18 -20 33 -34 33 -31 0 3 -30
54 -67 112 -130 207 -203 399 -247 647 -10 52 -20 197 -19 270 4 587 330 1153
838 1457 181 108 391 185 597 217 118 19 163 23 288 22 123 0 170 -3 260 -16
81 -11 95 -14 194 -40 498 -129 919 -487 1131 -960 41 -92 99 -262 110 -324 3
-14 7 -35 9 -46 4 -21 11 -70 22 -145 8 -54 8 -310 0 -348 -3 -15 -8 -47 -11
-72 -20 -150 -70 -317 -140 -466 -205 -438 -541 -736 -1038 -918 -72 -27 -50
-30 42 -6 494 126 913 418 1183 825 154 233 264 513 308 785 7 41 14 84 17 95
12 54 10 407 -4 510 -58 440 -248 830 -558 1141 -238 239 -520 409 -830 499
-88 26 -201 52 -260 61 -16 3 -55 10 -85 15 -68 13 -378 19 -445 9z"/>
<path d="M1430 2892 c-60 -5 -192 -33 -255 -54 -290 -99 -527 -342 -630 -646
-58 -170 -69 -408 -25 -577 35 -139 118 -303 200 -398 10 -12 26 -31 34 -42
15 -20 15 -20 16 2 0 12 -7 48 -15 80 -39 155 -53 412 -30 573 28 200 107 425
206 586 82 135 205 274 294 333 22 14 42 29 45 32 6 8 132 72 183 93 20 8 37
17 37 19 0 4 -4 4 -60 -1z"/>
<path d="M2530 2886 c0 -2 26 -19 58 -37 369 -207 584 -569 584 -984 0 -66 -3
-136 -6 -155 -4 -19 -9 -48 -12 -65 -65 -399 -351 -753 -715 -886 -151 -55
-268 -74 -434 -72 -125 3 -269 25 -340 53 -11 5 -40 16 -65 25 -70 26 -186 90
-248 139 -215 165 -367 413 -447 731 l-15 60 5 -125 c2 -69 6 -137 9 -152 4
-16 8 -38 11 -50 107 -518 535 -919 1070 -1005 28 -4 127 -7 220 -7 154 1 181
4 285 32 373 97 660 319 829 642 49 94 114 270 125 340 3 19 9 58 13 85 14 92
8 354 -10 440 -83 393 -318 712 -655 887 -108 56 -262 118 -262 104z"/>
<path d="M1864 2813 c-330 -51 -580 -275 -680 -608 -23 -78 -27 -108 -28 -230
0 -118 3 -153 22 -220 42 -147 103 -255 201 -359 56 -58 162 -146 177 -146 5
0 -22 29 -58 65 -193 188 -257 404 -203 680 12 62 59 168 104 238 110 166 264
276 442 313 356 75 712 -124 837 -468 114 -315 18 -620 -263 -833 -11 -8 -15
-15 -9 -15 27 0 164 112 231 189 267 311 280 754 32 1078 -185 240 -501 364
-805 316z"/>
<path d="M1939 2149 c-110 -16 -200 -84 -251 -187 -30 -60 -33 -75 -33 -157 0
-82 3 -97 33 -157 18 -36 49 -82 68 -101 115 -112 304 -128 446 -38 170 108
203 392 62 535 -87 88 -198 124 -325 105z"/>
</g>
</svg>
